<?xml version="1.0" standalone="no"?>
<!DOCTYPE svg PUBLIC "-//W3C//DTD SVG 20010904//EN"
 "http://www.w3.org/TR/2001/REC-SVG-20010904/DTD/svg10.dtd">
<svg version="1.0" xmlns="http://www.w3.org/2000/svg"
 width="677.000000pt" height="327.000000pt" viewBox="0 0 677.000000 327.000000"
 preserveAspectRatio="xMidYMid meet">
<metadata>
Created by potrace 1.15, written by Peter Selinger 2001-2017
</metadata>
<g transform="translate(0.000000,327.000000) scale(0.100000,-0.100000)"
fill="#000000" stroke="none">
<path d="M3455 2890 l-150 -150 245 0 245 0 88 -88 87 -87 0 -295 0 -295 -88
-88 -87 -87 -240 0 -240 0 150 -150 150 -150 175 0 175 0 153 153 152 152 0
470 0 470 -148 148 -147 147 -185 0 -185 0 -150 -150z"/>
<path d="M4970 1785 l0 -1250 147 -147 148 -148 235 0 235 0 -233 233 -232
232 0 1015 0 1015 -150 150 -150 150 0 -1250z"/>
<path d="M618 2767 l232 -232 0 -1015 0 -1015 150 -150 150 -150 0 1250 0
1250 -148 148 -147 147 -235 0 -235 0 233 -233z"/>
<path d="M1315 2850 l-150 -150 245 0 245 0 88 -88 87 -87 0 -295 0 -295 -88
-88 -87 -87 -245 0 -245 0 150 -150 150 -150 180 0 180 0 153 153 152 152 0
470 0 470 -148 148 -147 147 -185 0 -185 0 -150 -150z"/>
<path d="M4142 1627 l-152 -152 0 -470 0 -470 147 -147 148 -148 185 0 185 0
150 150 150 150 -245 0 -245 0 -87 87 -88 88 0 295 0 295 87 87 88 88 245 0
245 0 -150 150 -150 150 -180 0 -180 0 -153 -153z"/>
<path d="M2002 1587 l-152 -152 0 -470 0 -470 147 -147 148 -148 185 0 185 0
150 150 150 150 -245 0 -245 0 -87 87 -88 88 0 295 0 295 87 87 88 88 240 0
240 0 -150 150 -150 150 -175 0 -175 0 -153 -153z"/>
</g>
</svg>
